STARTFONT 2.3
FONT -FontForge-Zen Tokyo Zoo-Book-R-Normal--16-160-72-72-P-75-ISO10646-1
SIZE 16 72 72  4
FONTBOUNDINGBOX 21 23 -2 -4
COMMENT "Generated by fontforge, http://fontforge.sourceforge.net"
COMMENT "Copyright 2021 The Zen Tokyo Zoo Project Authors (https://github.com/googlefonts/zen-tokyo-zoo)"
STARTPROPERTIES 40
FOUNDRY "FontForge"
FAMILY_NAME "Zen Tokyo Zoo"
WEIGHT_NAME "Book"
SLANT "R"
SETWIDTH_NAME "Normal"
ADD_STYLE_NAME ""
PIXEL_SIZE 16
POINT_SIZE 160
RESOLUTION_X 72
RESOLUTION_Y 72
SPACING "P"
AVERAGE_WIDTH 75
CHARSET_REGISTRY "ISO10646"
CHARSET_ENCODING "1"
FONTNAME_REGISTRY ""
CHARSET_COLLECTIONS "ISO10646-1"
BITS_PER_PIXEL 4
FONT_NAME "ZenTokyoZoo-Regular"
FACE_NAME "Zen Tokyo Zoo Regular"
COPYRIGHT "Copyright 2021 The Zen Tokyo Zoo Project Authors (https://github.com/googlefonts/zen-tokyo-zoo)"
FONT_VERSION "1.002; ttfautohint (v1.8.3)"
FONT_ASCENT 13
FONT_DESCENT 3
UNDERLINE_POSITION -2
UNDERLINE_THICKNESS 1
X_HEIGHT 6
CAP_HEIGHT 13
RAW_ASCENT 800
RAW_DESCENT 200
NORM_SPACE 4
RELATIVE_WEIGHT 40
RELATIVE_SETWIDTH 50
SUPERSCRIPT_X 0
SUPERSCRIPT_Y 5
SUPERSCRIPT_SIZE 9
SUBSCRIPT_X 0
SUBSCRIPT_Y 1
SUBSCRIPT_SIZE 9
AVG_LOWERCASE_WIDTH 66
AVG_UPPERCASE_WIDTH 121
ENDPROPERTIES
CHARS 338
STARTCHAR CR
ENCODING 13
SWIDTH 600 0
DWIDTH 10 0
BBX 1 1 0 0
BITMAP
00
ENDCHAR
STARTCHAR space
ENCODING 32
SWIDTH 280 0
DWIDTH 4 0
BBX 1 1 0 0
BITMAP
00
ENDCHAR
STARTCHAR exclam
ENCODING 33
SWIDTH 196 0
DWIDTH 3 0
BBX 3 7 0 0
BITMAP
3650
3650
3650
3650
3650
1320
3650
ENDCHAR
STARTCHAR quotedbl
ENCODING 34
SWIDTH 302 0
DWIDTH 5 0
BBX 5 3 0 4
BITMAP
772670
772670
220110
ENDCHAR
STARTCHAR numbersign
ENCODING 35
SWIDTH 513 0
DWIDTH 8 0
BBX 8 7 0 0
BITMAP
00770550
05776883
04777883
00115520
28888740
28987750
06627700
ENDCHAR
STARTCHAR dollar
ENCODING 36
SWIDTH 379 0
DWIDTH 6 0
BBX 6 9 0 -1
BITMAP
002200
045550
474564
766321
286760
016846
345567
294592
014510
ENDCHAR
STARTCHAR percent
ENCODING 37
SWIDTH 493 0
DWIDTH 8 0
BBX 8 7 0 0
BITMAP
38841770
73477710
18856500
00079870
0077A565
03768556
08703881
ENDCHAR
STARTCHAR ampersand
ENCODING 38
SWIDTH 487 0
DWIDTH 8 0
BBX 8 7 0 0
BITMAP
00678300
01775700
00875700
02884321
19588381
26857810
07777650
ENDCHAR
STARTCHAR quotesingle
ENCODING 39
SWIDTH 146 0
DWIDTH 2 0
BBX 2 3 0 4
BITMAP
77
77
22
ENDCHAR
STARTCHAR parenleft
ENCODING 40
SWIDTH 210 0
DWIDTH 3 0
BBX 3 8 0 0
BITMAP
0880
2770
5630
7710
7710
5630
2770
0880
ENDCHAR
STARTCHAR parenright
ENCODING 41
SWIDTH 210 0
DWIDTH 3 0
BBX 3 8 0 0
BITMAP
7720
2770
0770
0770
0770
0770
2770
7720
ENDCHAR
STARTCHAR asterisk
ENCODING 42
SWIDTH 358 0
DWIDTH 6 0
BBX 5 4 0 3
BITMAP
005500
171360
051330
045730
ENDCHAR
STARTCHAR plus
ENCODING 43
SWIDTH 394 0
DWIDTH 6 0
BBX 6 5 0 1
BITMAP
007700
367745
007700
367745
007700
ENDCHAR
STARTCHAR comma
ENCODING 44
SWIDTH 216 0
DWIDTH 3 0
BBX 3 2 0 -1
BITMAP
0770
3660
ENDCHAR
STARTCHAR hyphen
ENCODING 45
SWIDTH 326 0
DWIDTH 5 0
BBX 5 2 0 2
BITMAP
288830
288830
ENDCHAR
STARTCHAR period
ENCODING 46
SWIDTH 176 0
DWIDTH 3 0
BBX 3 2 0 0
BITMAP
2210
5630
ENDCHAR
STARTCHAR slash
ENCODING 47
SWIDTH 298 0
DWIDTH 5 0
BBX 5 7 0 0
BITMAP
007620
008800
026700
066300
088000
177000
564000
ENDCHAR
STARTCHAR zero
ENCODING 48
SWIDTH 306 0
DWIDTH 5 0
BBX 5 7 0 0
BITMAP
188800
647450
772660
772660
772660
648450
187700
ENDCHAR
STARTCHAR one
ENCODING 49
SWIDTH 306 0
DWIDTH 5 0
BBX 5 7 0 0
BITMAP
287710
287710
007710
007710
007710
007710
007710
ENDCHAR
STARTCHAR two
ENCODING 50
SWIDTH 299 0
DWIDTH 5 0
BBX 5 7 0 0
BITMAP
088800
558530
118720
075600
246000
488820
488820
ENDCHAR
STARTCHAR three
ENCODING 51
SWIDTH 324 0
DWIDTH 5 0
BBX 5 7 0 0
BITMAP
188830
527370
003720
000270
003370
638470
187810
ENDCHAR
STARTCHAR four
ENCODING 52
SWIDTH 339 0
DWIDTH 5 0
BBX 5 7 0 0
BITMAP
008710
045700
086200
145430
485770
485770
000770
ENDCHAR
STARTCHAR five
ENCODING 53
SWIDTH 363 0
DWIDTH 6 0
BBX 4 7 1 0
BITMAP
6887
6887
7720
7747
3377
7667
4774
ENDCHAR
STARTCHAR six
ENCODING 54
SWIDTH 306 0
DWIDTH 5 0
BBX 5 7 0 0
BITMAP
188800
647540
771110
774600
774640
648450
187800
ENDCHAR
STARTCHAR seven
ENCODING 55
SWIDTH 298 0
DWIDTH 5 0
BBX 5 7 0 0
BITMAP
388820
388820
004400
007700
017700
056400
077100
ENDCHAR
STARTCHAR eight
ENCODING 56
SWIDTH 306 0
DWIDTH 5 0
BBX 5 7 0 0
BITMAP
188800
647450
665550
188600
636840
648450
187800
ENDCHAR
STARTCHAR nine
ENCODING 57
SWIDTH 306 0
DWIDTH 5 0
BBX 5 7 0 0
BITMAP
188800
647450
654660
075660
112660
648450
187700
ENDCHAR
STARTCHAR colon
ENCODING 58
SWIDTH 176 0
DWIDTH 3 0
BBX 3 5 0 0
BITMAP
1100
5630
1210
2210
5630
ENDCHAR
STARTCHAR semicolon
ENCODING 59
SWIDTH 217 0
DWIDTH 3 0
BBX 3 6 0 -1
BITMAP
0110
0770
0220
0330
1770
3540
ENDCHAR
STARTCHAR less
ENCODING 60
SWIDTH 450 0
DWIDTH 7 0
BBX 7 8 0 -1
BITMAP
00000140
00006830
00185830
14855000
05858300
00067650
00001840
00000010
ENDCHAR
STARTCHAR equal
ENCODING 61
SWIDTH 344 0
DWIDTH 6 0
BBX 5 5 0 1
BITMAP
388870
388870
000000
388870
388870
ENDCHAR
STARTCHAR greater
ENCODING 62
SWIDTH 450 0
DWIDTH 7 0
BBX 7 7 0 0
BITMAP
34000000
26820000
17677100
00285830
03845200
36860000
38100000
ENDCHAR
STARTCHAR question
ENCODING 63
SWIDTH 346 0
DWIDTH 6 0
BBX 5 7 0 0
BITMAP
068820
168580
012770
008640
008800
003300
007700
ENDCHAR
STARTCHAR at
ENCODING 64
SWIDTH 490 0
DWIDTH 8 0
BBX 8 7 0 0
BITMAP
02ACD910
196579A0
57668593
56745555
56267143
19400650
029BB400
ENDCHAR
STARTCHAR A
ENCODING 65
SWIDTH 798 0
DWIDTH 13 0
BBX 13 14 0 0
BITMAP
00003678000000
00007766400000
00008881800000
00036777700000
00077666640000
00088836780000
00367708870000
00776407664000
00888002678000
03677684887000
07765887766400
08884888567800
36770000088700
76640000076640
ENDCHAR
STARTCHAR B
ENCODING 66
SWIDTH 784 0
DWIDTH 13 0
BBX 12 14 0 0
BITMAP
367688888600
367688888570
367688877872
367600004676
367600004667
367688887835
367688888272
367600000559
367688888448
367600000777
367600000877
367688878677
367688887572
367688887820
ENDCHAR
STARTCHAR C
ENCODING 67
SWIDTH 776 0
DWIDTH 12 0
BBX 12 14 0 0
BITMAP
000178888820
003947888475
028687888783
086692001840
278800000000
566500000000
776200000000
776200000000
566500000000
268800000000
086692000830
027687888683
003837888465
000167777720
ENDCHAR
STARTCHAR D
ENCODING 68
SWIDTH 806 0
DWIDTH 13 0
BBX 13 14 0 0
BITMAP
36768888600000
36768887492000
36768887858100
36760002975700
36760000188710
36760000066640
36760000046660
36760000046660
36760000076640
36760000188710
36760002975700
36768887868100
36768887492000
36768888600000
ENDCHAR
STARTCHAR E
ENCODING 69
SWIDTH 677 0
DWIDTH 11 0
BBX 11 14 0 0
BITMAP
367688888830
367688888830
367688888830
367600000000
367600000000
367600000000
367688888300
367688888300
367688888300
367600000000
367600000000
367688888830
367688888830
367688888830
ENDCHAR
STARTCHAR F
ENCODING 70
SWIDTH 677 0
DWIDTH 11 0
BBX 11 14 0 0
BITMAP
367688888830
367688888830
367688888830
367600000000
367600000000
367600000000
367688888300
367688888300
367688888300
367600000000
367600000000
367600000000
367600000000
367600000000
ENDCHAR
STARTCHAR G
ENCODING 71
SWIDTH 872 0
DWIDTH 14 0
BBX 14 14 0 0
BITMAP
00017888882000
00394788857500
02868788878640
08669200076840
27880000005000
56650000000000
77620006888884
77620006888884
56650006777773
26880000006432
08669200186780
02768788878630
00383788837500
00016777772000
ENDCHAR
STARTCHAR H
ENCODING 72
SWIDTH 781 0
DWIDTH 13 0
BBX 12 14 0 0
BITMAP
367600000777
367600000777
367600000777
367600000777
367600000777
367600000777
367688884777
367688884777
367688884777
367600000777
367600000777
367600000777
367600000777
367600000777
ENDCHAR
STARTCHAR I
ENCODING 73
SWIDTH 262 0
DWIDTH 4 0
BBX 4 14 0 0
BITMAP
3676
3676
3676
3676
3676
3676
3676
3676
3676
3676
3676
3676
3676
3676
ENDCHAR
STARTCHAR J
ENCODING 74
SWIDTH 674 0
DWIDTH 11 0
BBX 10 14 0 0
BITMAP
0000000777
0000000777
0000000777
0000000777
0000000777
0000000777
0000000777
0000000777
4440000777
7771000877
6567003777
1786887945
0556887370
0037777600
ENDCHAR
STARTCHAR K
ENCODING 75
SWIDTH 739 0
DWIDTH 12 0
BBX 12 14 0 0
BITMAP
367600027872
367600086570
367600557800
367601787300
367604657000
367617480000
367686520000
367A68810000
367685680000
367618756000
367603797200
367600657800
367600086570
367600018864
ENDCHAR
STARTCHAR L
ENCODING 76
SWIDTH 604 0
DWIDTH 10 0
BBX 10 14 0 0
BITMAP
3676000000
3676000000
3676000000
3676000000
3676000000
3676000000
3676000000
3676000000
3676000000
3676000000
3676000000
3676888883
3676888883
3676888883
ENDCHAR
STARTCHAR M
ENCODING 77
SWIDTH 909 0
DWIDTH 15 0
BBX 14 14 0 0
BITMAP
36760000000777
36764000006777
36768100072777
36765800275777
36768550863777
36765875575777
36768558673777
36762774660777
36760648200777
36760083000777
36760025000777
36760000000777
36760000000777
36760000000777
ENDCHAR
STARTCHAR N
ENCODING 78
SWIDTH 796 0
DWIDTH 13 0
BBX 12 14 0 0
BITMAP
367600000777
367650000777
367681000777
367668000777
367686400777
367668810777
367686680777
367618864777
367604687777
367600864777
367600187777
367600054777
367600007777
367600000777
ENDCHAR
STARTCHAR O
ENCODING 79
SWIDTH 894 0
DWIDTH 14 0
BBX 14 14 0 0
BITMAP
00017888882000
00394788857600
02868788878650
08669200176881
27880000007656
56650000001777
77620000000777
77620000000787
56650000001777
26880000007656
08669200176871
02768788878550
00383788846500
00016777772000
ENDCHAR
STARTCHAR P
ENCODING 80
SWIDTH 743 0
DWIDTH 12 0
BBX 12 14 0 0
BITMAP
367688888600
367688888570
367688877872
367600004676
367600004667
367688887835
367688888271
367600000550
367688888400
367600000000
367600000000
367600000000
367600000000
367600000000
ENDCHAR
STARTCHAR Q
ENCODING 81
SWIDTH 911 0
DWIDTH 15 0
BBX 14 14 0 0
BITMAP
00017888882000
00394788857600
02868788879650
08669200176881
27880000007756
56650000001788
77620000000888
77620000000777
56650000048378
26880000475846
08669200388581
02768788747857
00383788856783
00016777771450
ENDCHAR
STARTCHAR R
ENCODING 82
SWIDTH 745 0
DWIDTH 12 0
BBX 12 14 0 0
BITMAP
367688888600
367688888570
367688877872
367600004676
367600004667
367688887835
367688888271
367600000550
367688888400
367600555400
367600267800
367600087630
367600036780
367600008762
ENDCHAR
STARTCHAR S
ENCODING 83
SWIDTH 660 0
DWIDTH 11 0
BBX 11 14 0 0
BITMAP
004888871000
066688849100
279677775700
666600177400
576600010000
278697200000
056676782000
002775778400
000015857900
000000087710
346500188700
369788876800
074688848200
005777771000
ENDCHAR
STARTCHAR T
ENCODING 84
SWIDTH 641 0
DWIDTH 10 0
BBX 11 14 0 0
BITMAP
688888888810
688888888810
688888888810
000244500000
000266700000
000266700000
000266700000
000266700000
000266700000
000266700000
000266700000
000266700000
000266700000
000266700000
ENDCHAR
STARTCHAR U
ENCODING 85
SWIDTH 702 0
DWIDTH 11 0
BBX 11 14 0 0
BITMAP
367600026670
367600026670
367600026670
367600026670
367600026670
367600026670
367600026670
367600026670
367600026670
267700046650
078820098630
074888876800
018388847200
001777772000
ENDCHAR
STARTCHAR V
ENCODING 86
SWIDTH 758 0
DWIDTH 12 0
BBX 12 14 0 0
BITMAP
776300002678
367700006665
088800008870
087620026780
046670066650
007880088700
008771277800
005666666400
001778387000
000887178000
000666544000
000267850000
000088800000
000076640000
ENDCHAR
STARTCHAR W
ENCODING 87
SWIDTH 972 0
DWIDTH 16 0
BBX 16 14 0 0
BITMAP
7761005665007762
5665007771008870
2677007780017770
0887016774056650
0877156658077610
0666477737188700
0367767846467700
0078717827746500
0088736577867100
0076637187717000
0046667076637000
0017772036661000
0008870007780000
0007762008770000
ENDCHAR
STARTCHAR X
ENCODING 88
SWIDTH 712 0
DWIDTH 11 0
BBX 11 14 0 0
BITMAP
278800075670
086560178710
027881765600
007667588000
001787556000
000756770000
000188720000
000265680000
000828862000
004676578000
008763886300
055780467800
088620087640
656800036880
ENDCHAR
STARTCHAR Y
ENCODING 89
SWIDTH 769 0
DWIDTH 12 0
BBX 12 14 0 0
BITMAP
756800004688
188630008864
055790075680
008756278710
002788465600
000756848000
000188644000
000032240000
000026660000
000026770000
000026770000
000026770000
000026770000
000026770000
ENDCHAR
STARTCHAR Z
ENCODING 90
SWIDTH 708 0
DWIDTH 11 0
BBX 11 14 0 0
BITMAP
058888856880
058888587550
058887567800
000000886300
000006568000
000017871000
000076570000
000278800000
000875500000
004678000000
008863000000
065686888800
178758888800
765778888800
ENDCHAR
STARTCHAR bracketleft
ENCODING 91
SWIDTH 320 0
DWIDTH 5 0
BBX 5 8 0 -1
BITMAP
255720
367720
365000
365000
365000
365000
367720
255720
ENDCHAR
STARTCHAR backslash
ENCODING 92
SWIDTH 298 0
DWIDTH 5 0
BBX 5 7 0 0
BITMAP
564000
177000
088000
066300
026700
008800
007620
ENDCHAR
STARTCHAR bracketright
ENCODING 93
SWIDTH 320 0
DWIDTH 5 0
BBX 5 8 0 -1
BITMAP
175540
175650
003650
003650
003650
003650
175650
175530
ENDCHAR
STARTCHAR asciicircum
ENCODING 94
SWIDTH 309 0
DWIDTH 5 0
BBX 4 3 0 4
BITMAP
0060
0555
1868
ENDCHAR
STARTCHAR underscore
ENCODING 95
SWIDTH 472 0
DWIDTH 8 0
BBX 7 2 0 0
BITMAP
28888860
28888860
ENDCHAR
STARTCHAR grave
ENCODING 96
SWIDTH 195 0
DWIDTH 3 0
BBX 2 2 1 8
BITMAP
40
71
ENDCHAR
STARTCHAR a
ENCODING 97
SWIDTH 414 0
DWIDTH 7 0
BBX 7 7 0 0
BITMAP
00884000
01788000
056A7000
08746400
17A87800
56989700
87004650
ENDCHAR
STARTCHAR b
ENCODING 98
SWIDTH 423 0
DWIDTH 7 0
BBX 7 7 0 0
BITMAP
56988600
56988710
5698AB10
56300710
56988440
56988620
56988700
ENDCHAR
STARTCHAR c
ENCODING 99
SWIDTH 446 0
DWIDTH 7 0
BBX 7 7 0 0
BITMAP
01877700
18477440
55600300
77100000
55600200
18477540
02877700
ENDCHAR
STARTCHAR d
ENCODING 100
SWIDTH 450 0
DWIDTH 7 0
BBX 7 7 0 0
BITMAP
56988300
56986720
56303670
56300770
56303670
56986720
56988300
ENDCHAR
STARTCHAR e
ENCODING 101
SWIDTH 363 0
DWIDTH 6 0
BBX 6 7 0 0
BITMAP
569884
569884
563000
569880
569880
569884
569884
ENDCHAR
STARTCHAR f
ENCODING 102
SWIDTH 365 0
DWIDTH 6 0
BBX 6 7 0 0
BITMAP
569884
569884
563000
569880
569880
563000
563000
ENDCHAR
STARTCHAR g
ENCODING 103
SWIDTH 483 0
DWIDTH 8 0
BBX 8 7 0 0
BITMAP
01877710
18478460
55600500
77105772
55605A82
18477580
02877810
ENDCHAR
STARTCHAR h
ENCODING 104
SWIDTH 428 0
DWIDTH 7 0
BBX 7 7 0 0
BITMAP
56305630
56305630
56305630
5698A630
5698A630
56305630
56305630
ENDCHAR
STARTCHAR i
ENCODING 105
SWIDTH 176 0
DWIDTH 3 0
BBX 3 7 0 0
BITMAP
5630
5630
5630
5630
5630
5630
5630
ENDCHAR
STARTCHAR j
ENCODING 106
SWIDTH 390 0
DWIDTH 6 0
BBX 6 7 0 0
BITMAP
000077
000077
000077
000077
651177
358845
067770
ENDCHAR
STARTCHAR k
ENCODING 107
SWIDTH 381 0
DWIDTH 6 0
BBX 6 7 0 0
BITMAP
563557
563881
568560
567A00
56A720
565790
563657
ENDCHAR
STARTCHAR l
ENCODING 108
SWIDTH 330 0
DWIDTH 5 0
BBX 5 7 0 0
BITMAP
563000
563000
563000
563000
563000
569880
569880
ENDCHAR
STARTCHAR m
ENCODING 109
SWIDTH 501 0
DWIDTH 8 0
BBX 8 7 0 0
BITMAP
56800866
56844866
56988966
5676A666
56373266
56300266
56300266
ENDCHAR
STARTCHAR n
ENCODING 110
SWIDTH 444 0
DWIDTH 7 0
BBX 7 7 0 0
BITMAP
56701670
56931670
56891670
56858670
56387670
56328670
56306670
ENDCHAR
STARTCHAR o
ENCODING 111
SWIDTH 494 0
DWIDTH 8 0
BBX 8 7 0 0
BITMAP
01877710
18477480
55600764
77100276
55600764
18477480
02877710
ENDCHAR
STARTCHAR p
ENCODING 112
SWIDTH 412 0
DWIDTH 7 0
BBX 7 7 0 0
BITMAP
56988500
56987800
56987610
56300800
56988300
56300000
56300000
ENDCHAR
STARTCHAR q
ENCODING 113
SWIDTH 494 0
DWIDTH 8 0
BBX 8 7 0 0
BITMAP
01877710
18477480
55600754
77100376
55603993
18477692
02877951
ENDCHAR
STARTCHAR r
ENCODING 114
SWIDTH 412 0
DWIDTH 7 0
BBX 7 7 0 0
BITMAP
56988500
56987800
56987610
56300800
569AA300
56366400
56308800
ENDCHAR
STARTCHAR s
ENCODING 115
SWIDTH 379 0
DWIDTH 6 0
BBX 6 7 0 0
BITMAP
077770
647745
677210
069981
011567
557746
077770
ENDCHAR
STARTCHAR t
ENCODING 116
SWIDTH 349 0
DWIDTH 6 0
BBX 6 7 0 0
BITMAP
788883
78AA83
007700
007700
007700
007700
007700
ENDCHAR
STARTCHAR u
ENCODING 117
SWIDTH 400 0
DWIDTH 6 0
BBX 6 7 0 0
BITMAP
563077
563077
563077
563077
564077
277847
058780
ENDCHAR
STARTCHAR v
ENCODING 118
SWIDTH 394 0
DWIDTH 6 0
BBX 6 7 0 0
BITMAP
870087
664078
178465
088771
066980
026860
008A20
ENDCHAR
STARTCHAR w
ENCODING 119
SWIDTH 521 0
DWIDTH 8 0
BBX 9 7 0 0
BITMAP
8707717710
7627B28700
4667967700
07C68B6500
0897997100
0778769000
0468469000
ENDCHAR
STARTCHAR x
ENCODING 120
SWIDTH 369 0
DWIDTH 6 0
BBX 6 7 0 0
BITMAP
655655
088880
065950
01A900
078560
178981
863467
ENDCHAR
STARTCHAR y
ENCODING 121
SWIDTH 422 0
DWIDTH 7 0
BBX 7 7 0 0
BITMAP
75508640
18846800
046B7100
00655000
00562000
00672000
00672000
ENDCHAR
STARTCHAR z
ENCODING 122
SWIDTH 409 0
DWIDTH 7 0
BBX 6 7 0 0
BITMAP
388887
388999
001974
008650
086600
49A887
388887
ENDCHAR
STARTCHAR braceleft
ENCODING 123
SWIDTH 443 0
DWIDTH 7 0
BBX 7 8 0 -1
BITMAP
00355720
00466720
00464000
17664000
17664000
00464000
00466720
00355720
ENDCHAR
STARTCHAR bar
ENCODING 124
SWIDTH 196 0
DWIDTH 3 0
BBX 3 8 0 0
BITMAP
3650
3650
3650
3650
3650
3650
3650
3650
ENDCHAR
STARTCHAR braceright
ENCODING 125
SWIDTH 506 0
DWIDTH 8 0
BBX 7 8 1 -1
BITMAP
17554000
17565000
00365000
00366720
00366720
00365000
17565000
17454000
ENDCHAR
STARTCHAR asciitilde
ENCODING 126
SWIDTH 450 0
DWIDTH 7 0
BBX 7 3 0 2
BITMAP
28850030
39861250
31038930
ENDCHAR
STARTCHAR uni00A0
ENCODING 160
SWIDTH 280 0
DWIDTH 4 0
BBX 1 1 0 0
BITMAP
00
ENDCHAR
STARTCHAR exclamdown
ENCODING 161
SWIDTH 196 0
DWIDTH 3 0
BBX 3 8 0 -2
BITMAP
0110
3650
1220
3650
3650
3650
3650
3650
ENDCHAR
STARTCHAR cent
ENCODING 162
SWIDTH 305 0
DWIDTH 5 0
BBX 5 9 0 -2
BITMAP
026600
069910
678740
880100
880100
678840
068810
026600
001100
ENDCHAR
STARTCHAR sterling
ENCODING 163
SWIDTH 408 0
DWIDTH 7 0
BBX 7 7 0 0
BITMAP
39893000
74756000
88885000
88885000
14400000
88888810
88888810
ENDCHAR
STARTCHAR currency
ENCODING 164
SWIDTH 401 0
DWIDTH 6 0
BBX 6 6 0 0
BITMAP
061061
447837
056680
056680
347826
161071
ENDCHAR
STARTCHAR yen
ENCODING 165
SWIDTH 423 0
DWIDTH 7 0
BBX 7 7 0 0
BITMAP
75508650
08847800
046B7200
00655000
18564700
18664700
00662000
ENDCHAR
STARTCHAR brokenbar
ENCODING 166
SWIDTH 196 0
DWIDTH 3 0
BBX 3 7 0 0
BITMAP
3650
3650
3650
0000
3650
3650
3650
ENDCHAR
STARTCHAR section
ENCODING 167
SWIDTH 322 0
DWIDTH 5 0
BBX 5 7 0 0
BITMAP
1DFD30
648400
363550
655770
363650
038570
2BEE30
ENDCHAR
STARTCHAR dieresis
ENCODING 168
SWIDTH 287 0
DWIDTH 5 0
BBX 4 1 0 8
BITMAP
1827
ENDCHAR
STARTCHAR copyright
ENCODING 169
SWIDTH 493 0
DWIDTH 8 0
BBX 8 8 0 0
BITMAP
00688500
08300470
35177172
70710135
70710125
35177172
08300460
00577400
ENDCHAR
STARTCHAR ordfeminine
ENCODING 170
SWIDTH 331 0
DWIDTH 5 0
BBX 5 4 0 3
BITMAP
048600
06A700
079920
1A6850
ENDCHAR
STARTCHAR guillemotleft
ENCODING 171
SWIDTH 298 0
DWIDTH 5 0
BBX 5 4 0 1
BITMAP
182800
144410
283700
010100
ENDCHAR
STARTCHAR logicalnot
ENCODING 172
SWIDTH 420 0
DWIDTH 7 0
BBX 7 5 0 0
BITMAP
38888810
00000000
38888810
00007700
00002200
ENDCHAR
STARTCHAR uni00AD
ENCODING 173
SWIDTH 326 0
DWIDTH 5 0
BBX 5 2 0 2
BITMAP
288830
288830
ENDCHAR
STARTCHAR registered
ENCODING 174
SWIDTH 493 0
DWIDTH 8 0
BBX 8 8 0 0
BITMAP
00688500
08300470
35000072
70579335
7056A225
35526272
08300460
00577400
ENDCHAR
STARTCHAR macron
ENCODING 175
SWIDTH 331 0
DWIDTH 5 0
BBX 5 1 0 8
BITMAP
288840
ENDCHAR
STARTCHAR degree
ENCODING 176
SWIDTH 298 0
DWIDTH 5 0
BBX 4 4 0 3
BITMAP
0684
2778
2777
0684
ENDCHAR
STARTCHAR plusminus
ENCODING 177
SWIDTH 418 0
DWIDTH 7 0
BBX 6 7 0 0
BITMAP
006720
186746
006720
186746
004410
388888
388888
ENDCHAR
STARTCHAR uni00B2
ENCODING 178
SWIDTH 233 0
DWIDTH 4 0
BBX 3 4 0 3
BITMAP
0660
2670
0640
2980
ENDCHAR
STARTCHAR uni00B3
ENCODING 179
SWIDTH 228 0
DWIDTH 4 0
BBX 3 4 0 3
BITMAP
0650
2460
0150
1970
ENDCHAR
STARTCHAR acute
ENCODING 180
SWIDTH 195 0
DWIDTH 3 0
BBX 2 2 1 8
BITMAP
31
80
ENDCHAR
STARTCHAR uni00B5
ENCODING 181
SWIDTH 506 0
DWIDTH 8 0
BBX 8 9 0 -2
BITMAP
36507700
36507700
36507700
36507700
36507700
36874861
36878675
36500000
36500000
ENDCHAR
STARTCHAR paragraph
ENCODING 182
SWIDTH 435 0
DWIDTH 7 0
BBX 7 7 0 0
BITMAP
18888810
65888810
74744310
53077520
07777520
00077520
00077520
ENDCHAR
STARTCHAR periodcentered
ENCODING 183
SWIDTH 176 0
DWIDTH 3 0
BBX 3 3 0 2
BITMAP
1100
5630
1210
ENDCHAR
STARTCHAR cedilla
ENCODING 184
SWIDTH 261 0
DWIDTH 4 0
BBX 3 4 1 -3
BITMAP
2100
A810
0350
8810
ENDCHAR
STARTCHAR uni00B9
ENCODING 185
SWIDTH 218 0
DWIDTH 3 0
BBX 3 4 0 3
BITMAP
1660
1660
0360
0360
ENDCHAR
STARTCHAR ordmasculine
ENCODING 186
SWIDTH 335 0
DWIDTH 5 0
BBX 5 4 0 3
BITMAP
066710
276470
2B0660
07BA10
ENDCHAR
STARTCHAR guillemotright
ENCODING 187
SWIDTH 298 0
DWIDTH 5 0
BBX 5 4 0 1
BITMAP
373600
335300
183810
101000
ENDCHAR
STARTCHAR onequarter
ENCODING 188
SWIDTH 429 0
DWIDTH 7 0
BBX 7 7 0 0
BITMAP
57505700
05508300
05556000
00083000
00564700
00837640
05605650
ENDCHAR
STARTCHAR onehalf
ENCODING 189
SWIDTH 437 0
DWIDTH 7 0
BBX 7 7 0 0
BITMAP
57506600
05528100
05565000
00383620
00652840
03703520
04303520
ENDCHAR
STARTCHAR threequarters
ENCODING 190
SWIDTH 409 0
DWIDTH 7 0
BBX 7 7 0 0
BITMAP
25204300
03328100
35565000
26481000
00657400
03827610
07414810
ENDCHAR
STARTCHAR questiondown
ENCODING 191
SWIDTH 346 0
DWIDTH 6 0
BBX 5 7 0 -1
BITMAP
007700
003300
017700
085400
258000
189670
048810
ENDCHAR
STARTCHAR Agrave
ENCODING 192
SWIDTH 798 0
DWIDTH 13 0
BBX 13 19 0 0
BITMAP
00023400000000
00008810000000
00004670000000
00000872000000
00000000000000
00003678000000
00007766400000
00008881800000
00036777700000
00077666640000
00088836780000
00367708870000
00776407664000
00888002678000
03677684887000
07765887766400
08884888567800
36770000088700
76640000076640
ENDCHAR
STARTCHAR Aacute
ENCODING 193
SWIDTH 798 0
DWIDTH 13 0
BBX 13 19 0 0
BITMAP
00000004320000
00000018800000
00000075500000
00000178000000
00000000000000
00003678000000
00007766400000
00008881800000
00036777700000
00077666640000
00088836780000
00367708870000
00776407664000
00888002678000
03677684887000
07765887766400
08884888567800
36770000088700
76640000076640
ENDCHAR
STARTCHAR Acircumflex
ENCODING 194
SWIDTH 798 0
DWIDTH 13 0
BBX 13 19 0 0
BITMAP
00000440000000
00007576000000
00037945700000
00097208630000
00000000000000
00003678000000
00007766400000
00008881800000
00036777700000
00077666640000
00088836780000
00367708870000
00776407664000
00888002678000
03677684887000
07765887766400
08884888567800
36770000088700
76640000076640
ENDCHAR
STARTCHAR Atilde
ENCODING 195
SWIDTH 798 0
DWIDTH 13 0
BBX 13 18 0 0
BITMAP
00018810140000
00062180530000
00050028700000
00000000000000
00003678000000
00007766400000
00008881800000
00036777700000
00077666640000
00088836780000
00367708870000
00776407664000
00888002678000
03677684887000
07765887766400
08884888567800
36770000088700
76640000076640
ENDCHAR
STARTCHAR Adieresis
ENCODING 196
SWIDTH 798 0
DWIDTH 13 0
BBX 13 19 0 0
BITMAP
00078204850000
00350808071000
00350808071000
00078204850000
00000000000000
00003678000000
00007766400000
00008881800000
00036777700000
00077666640000
00088836780000
00367708870000
00776407664000
00888002678000
03677684887000
07765887766400
08884888567800
36770000088700
76640000076640
ENDCHAR
STARTCHAR Aring
ENCODING 197
SWIDTH 798 0
DWIDTH 13 0
BBX 13 18 0 0
BITMAP
00000685000000
00003608000000
00003608000000
00000684000000
00003678000000
00007766400000
00008881800000
00036777700000
00077666640000
00088836780000
00367708870000
00776407664000
00888002678000
03677684887000
07765887766400
08884888567800
36770000088700
76640000076640
ENDCHAR
STARTCHAR AE
ENCODING 198
SWIDTH 1078 0
DWIDTH 17 0
BBX 17 14 0 0
BITMAP
000000167778888860
000000477768888860
000004477758888860
000008477700000000
000036777700000000
000087277610000000
000267766658888600
000873656668888600
002787136678888600
007646016770000000
017873837770000000
076576847775888860
178738857774888860
666700007773888860
ENDCHAR
STARTCHAR Ccedilla
ENCODING 199
SWIDTH 776 0
DWIDTH 12 0
BBX 12 18 0 -4
BITMAP
000178888820
003947888475
028687888783
086692001840
278800000000
566500000000
776200000000
776200000000
566500000000
268800000000
086692000830
027687888683
003837888465
000167777720
000002600000
00000A870000
000001062000
000017860000
ENDCHAR
STARTCHAR Egrave
ENCODING 200
SWIDTH 677 0
DWIDTH 11 0
BBX 11 19 0 0
BITMAP
000043200000
000027800000
000007640000
000001780000
000000000000
367688888830
367688888830
367688888830
367600000000
367600000000
367600000000
367688888300
367688888300
367688888300
367600000000
367600000000
367688888830
367688888830
367688888830
ENDCHAR
STARTCHAR Eacute
ENCODING 201
SWIDTH 677 0
DWIDTH 11 0
BBX 11 19 0 0
BITMAP
000000440000
000005560000
000008800000
000065500000
000000000000
367688888830
367688888830
367688888830
367600000000
367600000000
367600000000
367688888300
367688888300
367688888300
367600000000
367600000000
367688888830
367688888830
367688888830
ENDCHAR
STARTCHAR Ecircumflex
ENCODING 202
SWIDTH 677 0
DWIDTH 11 0
BBX 11 19 0 0
BITMAP
000014500000
000086460000
000558655000
001881187200
000000000000
367688888830
367688888830
367688888830
367600000000
367600000000
367600000000
367688888300
367688888300
367688888300
367600000000
367600000000
367688888830
367688888830
367688888830
ENDCHAR
STARTCHAR Edieresis
ENCODING 203
SWIDTH 677 0
DWIDTH 11 0
BBX 11 19 0 0
BITMAP
000781068400
006217160700
006217170800
000781058400
000000000000
367688888830
367688888830
367688888830
367600000000
367600000000
367600000000
367688888300
367688888300
367688888300
367600000000
367600000000
367688888830
367688888830
367688888830
ENDCHAR
STARTCHAR Igrave
ENCODING 204
SWIDTH 262 0
DWIDTH 4 0
BBX 5 19 -1 0
BITMAP
431000
467000
087200
036800
000000
036760
036760
036760
036760
036760
036760
036760
036760
036760
036760
036760
036760
036760
036760
ENDCHAR
STARTCHAR Iacute
ENCODING 205
SWIDTH 262 0
DWIDTH 4 0
BBX 5 19 0 0
BITMAP
000440
006560
018800
076400
000000
367600
367600
367600
367600
367600
367600
367600
367600
367600
367600
367600
367600
367600
367600
ENDCHAR
STARTCHAR Icircumflex
ENCODING 206
SWIDTH 262 0
DWIDTH 4 0
BBX 8 19 -2 0
BITMAP
00234000
00973600
07576630
37901881
00000000
00367600
00367600
00367600
00367600
00367600
00367600
00367600
00367600
00367600
00367600
00367600
00367600
00367600
00367600
ENDCHAR
STARTCHAR Idieresis
ENCODING 207
SWIDTH 262 0
DWIDTH 4 0
BBX 8 19 -2 0
BITMAP
18800782
71263507
71263508
18800782
00000000
00367600
00367600
00367600
00367600
00367600
00367600
00367600
00367600
00367600
00367600
00367600
00367600
00367600
00367600
ENDCHAR
STARTCHAR Eth
ENCODING 208
SWIDTH 856 0
DWIDTH 14 0
BBX 14 14 0 0
BITMAP
06665888850000
06665887659100
06665878784900
06663000488560
05552000027880
00000000008871
68888840007763
68888840007763
68888840008871
05552000027880
06663000488560
06665888784800
06665888649100
06665888850000
ENDCHAR
STARTCHAR Ntilde
ENCODING 209
SWIDTH 796 0
DWIDTH 13 0
BBX 12 18 0 0
BITMAP
000188101400
000721805300
000500286000
000000000000
367600000777
367650000777
367681000777
367668000777
367686400777
367668810777
367686680777
367618864777
367604687777
367600864777
367600187777
367600054777
367600007777
367600000777
ENDCHAR
STARTCHAR Ograve
ENCODING 210
SWIDTH 894 0
DWIDTH 14 0
BBX 14 19 0 0
BITMAP
00004220000000
00002780000000
00000764000000
00000188000000
00000000000000
00017888882000
00394788857600
02868788878650
08669200176881
27880000007656
56650000001777
77620000000777
77620000000787
56650000001777
26880000007656
08669200176871
02768788878550
00383788846500
00016777772000
ENDCHAR
STARTCHAR Oacute
ENCODING 211
SWIDTH 894 0
DWIDTH 14 0
BBX 14 19 0 0
BITMAP
00000001340000
00000007640000
00000027800000
00000087200000
00000000000000
00017888882000
00394788857600
02868788878650
08669200176881
27880000007656
56650000001777
77620000000777
77620000000787
56650000001777
26880000007656
08669200176871
02768788878550
00383788846500
00016777772000
ENDCHAR
STARTCHAR Ocircumflex
ENCODING 212
SWIDTH 894 0
DWIDTH 14 0
BBX 14 19 0 0
BITMAP
00000235000000
00000963600000
00006576640000
00027901881000
00000000000000
00017888882000
00394788857600
02868788878650
08669200176881
27880000007656
56650000001777
77620000000777
77620000000787
56650000001777
26880000007656
08669200176871
02768788878550
00383788846500
00016777772000
ENDCHAR
STARTCHAR Otilde
ENCODING 213
SWIDTH 894 0
DWIDTH 14 0
BBX 14 18 0 0
BITMAP
00002870031000
00008036081000
00005004850000
00000000000000
00017888882000
00394788857600
02868788878650
08669200176881
27880000007656
56650000001777
77620000000777
77620000000787
56650000001777
26880000007656
08669200176871
02768788878550
00383788846500
00016777772000
ENDCHAR
STARTCHAR Odieresis
ENCODING 214
SWIDTH 894 0
DWIDTH 14 0
BBX 14 19 0 0
BITMAP
00018810683000
00071172507000
00071172608000
00018810683000
00000000000000
00017888882000
00394788857600
02868788878650
08669200176881
27880000007656
56650000001777
77620000000777
77620000000787
56650000001777
26880000007656
08669200176871
02768788878550
00383788846500
00016777772000
ENDCHAR
STARTCHAR multiply
ENCODING 215
SWIDTH 370 0
DWIDTH 6 0
BBX 6 6 0 0
BITMAP
020010
254850
048660
086650
056551
000010
ENDCHAR
STARTCHAR Oslash
ENCODING 216
SWIDTH 894 0
DWIDTH 14 0
BBX 14 14 0 0
BITMAP
00017888866300
00384788837840
02868788497570
08668200756940
26880004687465
56650018746478
76620685580878
77626858520777
56649781001777
17599630007656
05795700176871
03968178878550
04672688846600
00034877772000
ENDCHAR
STARTCHAR Ugrave
ENCODING 217
SWIDTH 702 0
DWIDTH 11 0
BBX 11 19 0 0
BITMAP
002340000000
000871000000
000467000000
000087200000
000000000000
367600026670
367600026670
367600026670
367600026670
367600026670
367600026670
367600026670
367600026670
367600026670
267700046650
078820098630
074888876800
018388847200
001777772000
ENDCHAR
STARTCHAR Uacute
ENCODING 218
SWIDTH 702 0
DWIDTH 11 0
BBX 11 19 0 0
BITMAP
000000323000
000000881000
000006560000
000018800000
000000000000
367600026670
367600026670
367600026670
367600026670
367600026670
367600026670
367600026670
367600026670
367600026670
267700046650
078820098630
074888876800
018388847200
001777772000
ENDCHAR
STARTCHAR Ucircumflex
ENCODING 219
SWIDTH 702 0
DWIDTH 11 0
BBX 11 19 0 0
BITMAP
000053100000
000468520000
001882680000
008640756000
000000000000
367600026670
367600026670
367600026670
367600026670
367600026670
367600026670
367600026670
367600026670
367600026670
267700046650
078820098630
074888876800
018388847200
001777772000
ENDCHAR
STARTCHAR Udieresis
ENCODING 220
SWIDTH 702 0
DWIDTH 11 0
BBX 11 19 0 0
BITMAP
005840287000
007080704400
007080804400
005840287000
000000000000
367600026670
367600026670
367600026670
367600026670
367600026670
367600026670
367600026670
367600026670
367600026670
267700046650
078820098630
074888876800
018388847200
001777772000
ENDCHAR
STARTCHAR Yacute
ENCODING 221
SWIDTH 769 0
DWIDTH 12 0
BBX 12 19 0 0
BITMAP
000000044000
000000656000
000001880000
000007640000
000000000000
756800004688
188630008864
055790075680
008756278710
002788465600
000756848000
000188644000
000032240000
000026660000
000026770000
000026770000
000026770000
000026770000
000026770000
ENDCHAR
STARTCHAR Thorn
ENCODING 222
SWIDTH 743 0
DWIDTH 12 0
BBX 12 14 0 0
BITMAP
367600000000
367600000000
367600000000
367688888500
367688888670
367688887873
367600003666
367600004666
367688887973
367688888670
367688888500
367600000000
367600000000
367600000000
ENDCHAR
STARTCHAR germandbls
ENCODING 223
SWIDTH 424 0
DWIDTH 7 0
BBX 7 7 0 0
BITMAP
08888400
45887700
5636AA00
56300710
56368440
56388620
56388700
ENDCHAR
STARTCHAR agrave
ENCODING 224
SWIDTH 414 0
DWIDTH 7 0
BBX 7 10 0 0
BITMAP
00400000
00350000
00000000
00884000
01788000
056A7000
08746400
17A87800
56989700
87004650
ENDCHAR
STARTCHAR aacute
ENCODING 225
SWIDTH 414 0
DWIDTH 7 0
BBX 7 10 0 0
BITMAP
00004000
00063000
00000000
00884000
01788000
056A7000
08746400
17A87800
56989700
87004650
ENDCHAR
STARTCHAR acircumflex
ENCODING 226
SWIDTH 414 0
DWIDTH 7 0
BBX 7 10 0 0
BITMAP
00230000
01836000
00000000
00884000
01788000
056A7000
08746400
17A87800
56989700
87004650
ENDCHAR
STARTCHAR atilde
ENCODING 227
SWIDTH 414 0
DWIDTH 7 0
BBX 7 10 0 0
BITMAP
02934200
04168000
00000000
00884000
01788000
056A7000
08746400
17A87800
56989700
87004650
ENDCHAR
STARTCHAR adieresis
ENCODING 228
SWIDTH 414 0
DWIDTH 7 0
BBX 7 9 0 0
BITMAP
00818000
00000000
00884000
01788000
056A7000
08746400
17A87800
56989700
87004650
ENDCHAR
STARTCHAR aring
ENCODING 229
SWIDTH 414 0
DWIDTH 7 0
BBX 7 10 0 0
BITMAP
00361000
00371000
00000000
00884000
01788000
056A7000
08746400
17A87800
56989700
87004650
ENDCHAR
STARTCHAR ae
ENCODING 230
SWIDTH 593 0
DWIDTH 9 0
BBX 10 7 0 0
BITMAP
00086B8882
00268B8882
0086870000
026B898850
0863888850
27A8A88882
8620778882
ENDCHAR
STARTCHAR ccedilla
ENCODING 231
SWIDTH 446 0
DWIDTH 7 0
BBX 7 10 0 -3
BITMAP
01877700
18477440
55600300
77100000
55600200
18477540
028B7700
001B7000
00008000
00386000
ENDCHAR
STARTCHAR egrave
ENCODING 232
SWIDTH 363 0
DWIDTH 6 0
BBX 6 10 0 0
BITMAP
004000
004400
000000
569884
569884
563000
569880
569880
569884
569884
ENDCHAR
STARTCHAR eacute
ENCODING 233
SWIDTH 363 0
DWIDTH 6 0
BBX 6 10 0 0
BITMAP
000040
000620
000000
569884
569884
563000
569880
569880
569884
569884
ENDCHAR
STARTCHAR ecircumflex
ENCODING 234
SWIDTH 363 0
DWIDTH 6 0
BBX 6 10 0 0
BITMAP
002200
018350
000000
569884
569884
563000
569880
569880
569884
569884
ENDCHAR
STARTCHAR edieresis
ENCODING 235
SWIDTH 363 0
DWIDTH 6 0
BBX 6 9 0 0
BITMAP
018170
000000
569884
569884
563000
569880
569880
569884
569884
ENDCHAR
STARTCHAR igrave
ENCODING 236
SWIDTH 176 0
DWIDTH 3 0
BBX 3 10 0 0
BITMAP
4000
3500
0000
5630
5630
5630
5630
5630
5630
5630
ENDCHAR
STARTCHAR iacute
ENCODING 237
SWIDTH 176 0
DWIDTH 3 0
BBX 3 10 0 0
BITMAP
0040
0630
0000
5630
5630
5630
5630
5630
5630
5630
ENDCHAR
STARTCHAR icircumflex
ENCODING 238
SWIDTH 176 0
DWIDTH 3 0
BBX 4 10 -1 0
BITMAP
0230
1826
0000
0563
0563
0563
0563
0563
0563
0563
ENDCHAR
STARTCHAR idieresis
ENCODING 239
SWIDTH 176 0
DWIDTH 3 0
BBX 3 9 0 0
BITMAP
8180
0000
5630
5630
5630
5630
5630
5630
5630
ENDCHAR
STARTCHAR eth
ENCODING 240
SWIDTH 455 0
DWIDTH 7 0
BBX 7 7 0 0
BITMAP
46988400
46986630
23202780
78810770
24202670
46987630
46988400
ENDCHAR
STARTCHAR ntilde
ENCODING 241
SWIDTH 444 0
DWIDTH 7 0
BBX 7 10 0 0
BITMAP
01852300
02348100
00000000
56701670
56931670
56891670
56858670
56387670
56328670
56306670
ENDCHAR
STARTCHAR ograve
ENCODING 242
SWIDTH 494 0
DWIDTH 8 0
BBX 8 10 0 0
BITMAP
00130000
00081000
00000000
01877710
18477480
55600764
77100276
55600764
18477480
02877710
ENDCHAR
STARTCHAR oacute
ENCODING 243
SWIDTH 494 0
DWIDTH 8 0
BBX 8 10 0 0
BITMAP
00004000
00017000
00000000
01877710
18477480
55600764
77100276
55600764
18477480
02877710
ENDCHAR
STARTCHAR ocircumflex
ENCODING 244
SWIDTH 494 0
DWIDTH 8 0
BBX 8 10 0 0
BITMAP
00040000
00547100
00000000
01877710
18477480
55600764
77100276
55600764
18477480
02877710
ENDCHAR
STARTCHAR otilde
ENCODING 245
SWIDTH 494 0
DWIDTH 8 0
BBX 8 10 0 0
BITMAP
00681500
00518400
00000000
01877710
18477480
55600764
77100276
55600764
18477480
02877710
ENDCHAR
STARTCHAR odieresis
ENCODING 246
SWIDTH 494 0
DWIDTH 8 0
BBX 8 9 0 0
BITMAP
00545300
00000000
01877710
18477480
55600764
77100276
55600764
18477480
02877710
ENDCHAR
STARTCHAR divide
ENCODING 247
SWIDTH 418 0
DWIDTH 7 0
BBX 6 6 0 0
BITMAP
002700
002700
388888
388888
002700
003800
ENDCHAR
STARTCHAR oslash
ENCODING 248
SWIDTH 494 0
DWIDTH 8 0
BBX 8 7 0 0
BITMAP
02877370
18474830
55607473
77154276
55460754
03757480
07477710
ENDCHAR
STARTCHAR ugrave
ENCODING 249
SWIDTH 400 0
DWIDTH 6 0
BBX 6 10 0 0
BITMAP
004000
006300
000000
563077
563077
563077
563077
564077
277847
058780
ENDCHAR
STARTCHAR uacute
ENCODING 250
SWIDTH 400 0
DWIDTH 6 0
BBX 6 10 0 0
BITMAP
000220
000800
000000
563077
563077
563077
563077
564077
277847
058780
ENDCHAR
STARTCHAR ucircumflex
ENCODING 251
SWIDTH 400 0
DWIDTH 6 0
BBX 6 10 0 0
BITMAP
003100
027440
000000
563077
563077
563077
563077
564077
277847
058780
ENDCHAR
STARTCHAR udieresis
ENCODING 252
SWIDTH 400 0
DWIDTH 6 0
BBX 6 9 0 0
BITMAP
027360
000000
563077
563077
563077
563077
564077
277847
058780
ENDCHAR
STARTCHAR yacute
ENCODING 253
SWIDTH 422 0
DWIDTH 7 0
BBX 7 10 0 0
BITMAP
00013000
00071000
00000000
75508640
18846800
046B7100
00655000
00562000
00672000
00672000
ENDCHAR
STARTCHAR thorn
ENCODING 254
SWIDTH 412 0
DWIDTH 7 0
BBX 7 7 0 0
BITMAP
56300000
56988300
56987800
56307610
56987800
56988300
56300000
ENDCHAR
STARTCHAR ydieresis
ENCODING 255
SWIDTH 422 0
DWIDTH 7 0
BBX 7 9 0 0
BITMAP
00818000
00000000
75508640
18846800
046B7100
00655000
00562000
00672000
00672000
ENDCHAR
STARTCHAR Edotaccent
ENCODING 278
SWIDTH 677 0
DWIDTH 11 0
BBX 11 16 0 0
BITMAP
000004900000
000005B00000
367688888830
367688888830
367688888830
367600000000
367600000000
367600000000
367688888300
367688888300
367688888300
367600000000
367600000000
367688888830
367688888830
367688888830
ENDCHAR
STARTCHAR edotaccent
ENCODING 279
SWIDTH 363 0
DWIDTH 6 0
BBX 6 10 0 0
BITMAP
003A00
004D00
000000
569884
569884
563000
569880
569880
569884
569884
ENDCHAR
STARTCHAR dotlessi
ENCODING 305
SWIDTH 176 0
DWIDTH 3 0
BBX 3 7 0 0
BITMAP
5630
5630
5630
5630
5630
5630
5630
ENDCHAR
STARTCHAR OE
ENCODING 338
SWIDTH 1221 0
DWIDTH 20 0
BBX 19 14 0 0
BITMAP
00016878700028888880
00384778700028888880
02867778700028888880
08668200000000000000
26880000000000000000
66650000000000000000
76620000000028888810
76620000000028888810
66650000000028888810
26890000000000000000
08669200000000000000
02868788700028888880
00384778700028888880
00017888700028888880
ENDCHAR
STARTCHAR oe
ENCODING 339
SWIDTH 637 0
DWIDTH 10 0
BBX 10 7 0 0
BITMAP
0288703887
1858703887
5550000000
7610003883
5550003883
1858703887
0288703887
ENDCHAR
STARTCHAR Wcircumflex
ENCODING 372
SWIDTH 972 0
DWIDTH 16 0
BBX 16 19 0 0
BITMAP
0000004230000000
0000027943000000
0000097378100000
0000756055800000
0000000000000000
7761005665007762
5665007771008870
2677007780017770
0887016774056650
0877156658077610
0666477737188700
0367767846467700
0078717827746500
0088736577867100
0076637187717000
0046667076637000
0017772036661000
0008870007780000
0007762008770000
ENDCHAR
STARTCHAR wcircumflex
ENCODING 373
SWIDTH 521 0
DWIDTH 8 0
BBX 9 10 0 0
BITMAP
0004100000
0036530000
0000000000
8707717710
7627B28700
4667967700
07C68B6500
0897997100
0778769000
0468469000
ENDCHAR
STARTCHAR Ycircumflex
ENCODING 374
SWIDTH 769 0
DWIDTH 12 0
BBX 12 19 0 0
BITMAP
000013500000
000086460000
000657664000
002790188100
000000000000
756800004688
188630008864
055790075680
008756278710
002788465600
000756848000
000188644000
000032240000
000026660000
000026770000
000026770000
000026770000
000026770000
000026770000
ENDCHAR
STARTCHAR ycircumflex
ENCODING 375
SWIDTH 422 0
DWIDTH 7 0
BBX 7 10 0 0
BITMAP
00230000
01836000
00000000
75508640
18846800
046B7100
00655000
00562000
00672000
00672000
ENDCHAR
STARTCHAR Ydieresis
ENCODING 376
SWIDTH 769 0
DWIDTH 12 0
BBX 12 19 0 0
BITMAP
001881068300
007117250700
007117260800
001881068300
000000000000
756800004688
188630008864
055790075680
008756278710
002788465600
000756848000
000188644000
000032240000
000026660000
000026770000
000026770000
000026770000
000026770000
000026770000
ENDCHAR
STARTCHAR circumflex
ENCODING 710
SWIDTH 298 0
DWIDTH 5 0
BBX 3 2 1 8
BITMAP
1300
8270
ENDCHAR
STARTCHAR dotaccent
ENCODING 729
SWIDTH 212 0
DWIDTH 3 0
BBX 2 2 1 8
BITMAP
A3
D4
ENDCHAR
STARTCHAR ring
ENCODING 730
SWIDTH 212 0
DWIDTH 3 0
BBX 3 2 0 8
BITMAP
1740
1740
ENDCHAR
STARTCHAR tilde
ENCODING 732
SWIDTH 329 0
DWIDTH 5 0
BBX 5 2 0 8
BITMAP
086140
243810
ENDCHAR
STARTCHAR gravecomb
ENCODING 768
SWIDTH 0 0
DWIDTH 0 0
BBX 2 2 1 8
BITMAP
40
71
ENDCHAR
STARTCHAR acutecomb
ENCODING 769
SWIDTH 0 0
DWIDTH 0 0
BBX 2 2 1 8
BITMAP
31
80
ENDCHAR
STARTCHAR uni0302
ENCODING 770
SWIDTH 0 0
DWIDTH 0 0
BBX 3 2 1 8
BITMAP
1300
8270
ENDCHAR
STARTCHAR tildecomb
ENCODING 771
SWIDTH 0 0
DWIDTH 0 0
BBX 5 2 0 8
BITMAP
086140
243810
ENDCHAR
STARTCHAR uni0307
ENCODING 775
SWIDTH 0 0
DWIDTH 0 0
BBX 2 2 1 8
BITMAP
A3
D4
ENDCHAR
STARTCHAR uni0308
ENCODING 776
SWIDTH 0 0
DWIDTH 0 0
BBX 4 1 0 8
BITMAP
1827
ENDCHAR
STARTCHAR uni030A
ENCODING 778
SWIDTH 0 0
DWIDTH 0 0
BBX 3 2 0 8
BITMAP
1740
1740
ENDCHAR
STARTCHAR uni0327
ENCODING 807
SWIDTH 0 0
DWIDTH 0 0
BBX 3 4 1 -3
BITMAP
2100
A810
0350
8810
ENDCHAR
STARTCHAR Wgrave
ENCODING 7808
SWIDTH 972 0
DWIDTH 16 0
BBX 16 19 0 0
BITMAP
0000004400000000
0000007640000000
0000001880000000
0000000655000000
0000000000000000
7761005665007762
5665007771008870
2677007780017770
0887016774056650
0877156658077610
0666477737188700
0367767846467700
0078717827746500
0088736577867100
0076637187717000
0046667076637000
0017772036661000
0008870007780000
0007762008770000
ENDCHAR
STARTCHAR wgrave
ENCODING 7809
SWIDTH 521 0
DWIDTH 8 0
BBX 9 10 0 0
BITMAP
0003100000
0001800000
0000000000
8707717710
7627B28700
4667967700
07C68B6500
0897997100
0778769000
0468469000
ENDCHAR
STARTCHAR Wacute
ENCODING 7810
SWIDTH 972 0
DWIDTH 16 0
BBX 16 19 0 0
BITMAP
0000000323000000
0000000871000000
0000005570000000
0000008800000000
0000000000000000
7761005665007762
5665007771008870
2677007780017770
0887016774056650
0877156658077610
0666477737188700
0367767846467700
0078717827746500
0088736577867100
0076637187717000
0046667076637000
0017772036661000
0008870007780000
0007762008770000
ENDCHAR
STARTCHAR wacute
ENCODING 7811
SWIDTH 521 0
DWIDTH 8 0
BBX 9 10 0 0
BITMAP
0000400000
0004500000
0000000000
8707717710
7627B28700
4667967700
07C68B6500
0897997100
0778769000
0468469000
ENDCHAR
STARTCHAR Wdieresis
ENCODING 7812
SWIDTH 972 0
DWIDTH 16 0
BBX 16 19 0 0
BITMAP
0000486018800000
0000806171260000
0000806171260000
0000486018800000
0000000000000000
7761005665007762
5665007771008870
2677007780017770
0887016774056650
0877156658077610
0666477737188700
0367767846467700
0078717827746500
0088736577867100
0076637187717000
0046667076637000
0017772036661000
0008870007780000
0007762008770000
ENDCHAR
STARTCHAR wdieresis
ENCODING 7813
SWIDTH 521 0
DWIDTH 8 0
BBX 9 9 0 0
BITMAP
0026360000
0000000000
8707717710
7627B28700
4667967700
07C68B6500
0897997100
0778769000
0468469000
ENDCHAR
STARTCHAR uni1E9E
ENCODING 7838
SWIDTH 784 0
DWIDTH 13 0
BBX 12 14 0 0
BITMAP
367688888850
367688888850
367688888850
367600000000
367600088630
367600557800
367600887430
367606568573
367606764478
367600000877
367600000877
367618888668
367618888673
367618887830
ENDCHAR
STARTCHAR Ygrave
ENCODING 7922
SWIDTH 769 0
DWIDTH 12 0
BBX 12 19 0 0
BITMAP
000043200000
000036800000
000008630000
000002780000
000000000000
756800004688
188630008864
055790075680
008756278710
002788465600
000756848000
000188644000
000032240000
000026660000
000026770000
000026770000
000026770000
000026770000
000026770000
ENDCHAR
STARTCHAR ygrave
ENCODING 7923
SWIDTH 422 0
DWIDTH 7 0
BBX 7 10 0 0
BITMAP
00230000
00080000
00000000
75508640
18846800
046B7100
00655000
00562000
00672000
00672000
ENDCHAR
STARTCHAR endash
ENCODING 8211
SWIDTH 507 0
DWIDTH 8 0
BBX 8 2 0 2
BITMAP
28888882
28888882
ENDCHAR
STARTCHAR emdash
ENCODING 8212
SWIDTH 552 0
DWIDTH 9 0
BBX 8 2 0 2
BITMAP
28888888
28888888
ENDCHAR
STARTCHAR quoteleft
ENCODING 8216
SWIDTH 146 0
DWIDTH 2 0
BBX 2 3 0 4
BITMAP
70
77
22
ENDCHAR
STARTCHAR quoteright
ENCODING 8217
SWIDTH 146 0
DWIDTH 2 0
BBX 2 3 0 4
BITMAP
77
27
02
ENDCHAR
STARTCHAR quotesinglbase
ENCODING 8218
SWIDTH 146 0
DWIDTH 2 0
BBX 2 2 0 -2
BITMAP
77
17
ENDCHAR
STARTCHAR quotedblleft
ENCODING 8220
SWIDTH 297 0
DWIDTH 5 0
BBX 5 3 0 4
BITMAP
703400
773650
221110
ENDCHAR
STARTCHAR quotedblright
ENCODING 8221
SWIDTH 297 0
DWIDTH 5 0
BBX 5 3 0 4
BITMAP
773650
271350
020010
ENDCHAR
STARTCHAR quotedblbase
ENCODING 8222
SWIDTH 297 0
DWIDTH 5 0
BBX 5 2 0 -2
BITMAP
773650
171350
ENDCHAR
STARTCHAR bullet
ENCODING 8226
SWIDTH 302 0
DWIDTH 5 0
BBX 4 4 0 1
BITMAP
0684
2608
2608
0684
ENDCHAR
STARTCHAR ellipsis
ENCODING 8230
SWIDTH 528 0
DWIDTH 8 0
BBX 8 2 0 0
BITMAP
22133033
56377077
ENDCHAR
STARTCHAR guilsinglleft
ENCODING 8249
SWIDTH 178 0
DWIDTH 3 0
BBX 3 4 0 1
BITMAP
1810
1420
2800
0100
ENDCHAR
STARTCHAR guilsinglright
ENCODING 8250
SWIDTH 178 0
DWIDTH 3 0
BBX 3 4 0 1
BITMAP
3700
3310
1810
1000
ENDCHAR
STARTCHAR fraction
ENCODING 8260
SWIDTH 362 0
DWIDTH 6 0
BBX 6 7 0 0
BITMAP
000654
001880
007640
017800
076400
178000
764000
ENDCHAR
STARTCHAR uni2074
ENCODING 8308
SWIDTH 204 0
DWIDTH 3 0
BBX 3 4 0 3
BITMAP
0820
3500
3450
3580
ENDCHAR
STARTCHAR Euro
ENCODING 8364
SWIDTH 462 0
DWIDTH 7 0
BBX 7 7 0 0
BITMAP
01777810
08467650
67750100
00000000
67750000
08477650
00777810
ENDCHAR
STARTCHAR trademark
ENCODING 8482
SWIDTH 461 0
DWIDTH 7 0
BBX 7 3 0 3
BITMAP
AD976570
07074570
07070070
ENDCHAR
STARTCHAR minus
ENCODING 8722
SWIDTH 420 0
DWIDTH 7 0
BBX 7 2 0 2
BITMAP
5DDDDD10
5DDDDD10
ENDCHAR
STARTCHAR uni2215
ENCODING 8725
SWIDTH 278 0
DWIDTH 4 0
BBX 5 7 0 0
BITMAP
003310
008700
017700
056400
087000
178000
564000
ENDCHAR
STARTCHAR .notdef
ENCODING -1
SWIDTH 500 0
DWIDTH 8 0
BBX 8 18 0 -4
BITMAP
3DCCCCD3
39000093
39000093
39000093
39000093
39000093
39000093
39000093
39000093
39000093
39000093
39000093
39000093
39000093
39000093
39000093
39000093
3DCCCCD3
ENDCHAR
STARTCHAR NULL
ENCODING -1
SWIDTH 600 0
DWIDTH 10 0
BBX 1 1 0 0
BITMAP
00
ENDCHAR
STARTCHAR acutecomb.case
ENCODING -1
SWIDTH 0 0
DWIDTH 0 0
BBX 5 4 0 15
BITMAP
003230
008810
065600
188000
ENDCHAR
STARTCHAR ampersand.case
ENCODING -1
SWIDTH 797 0
DWIDTH 13 0
BBX 12 14 0 0
BITMAP
000388871000
002758848000
007567786300
007770466500
008772867300
005668489000
003886571000
075668820310
369676691882
766409756558
766402797370
359787657900
073888497570
006777838964
ENDCHAR
STARTCHAR asciicircum.case
ENCODING -1
SWIDTH 540 0
DWIDTH 9 0
BBX 9 8 0 7
BITMAP
0000100000
0002600000
0008710000
0036870000
0087456000
0557087100
0881046700
6560008710
ENDCHAR
STARTCHAR asciitilde.case
ENCODING -1
SWIDTH 640 0
DWIDTH 10 0
BBX 10 4 0 5
BITMAP
2720257751
1688841166
1988877764
1100058871
ENDCHAR
STARTCHAR asterisk.case
ENCODING -1
SWIDTH 482 0
DWIDTH 8 0
BBX 7 7 0 7
BITMAP
00077000
06356440
16400550
03400520
02734800
03636510
00100000
ENDCHAR
STARTCHAR at.case
ENCODING -1
SWIDTH 915 0
DWIDTH 15 0
BBX 15 14 0 0
BITMAP
0000588888400000
0019468886481000
0095920002848000
0658037785374500
0880477796408800
1770781066408800
3751670046407710
3652670046407700
1770871066508800
0880477889676500
0648038875886000
0084920003200000
0018468885500000
0000577777200000
ENDCHAR
STARTCHAR backslash.case
ENCODING -1
SWIDTH 504 0
DWIDTH 8 0
BBX 8 16 0 -1
BITMAP
44400000
76630000
36770000
08880000
07763000
03667000
00888000
00776200
00466700
00078800
00087620
00046670
00007880
00008772
00005666
00001788
ENDCHAR
STARTCHAR bar.case
ENCODING -1
SWIDTH 262 0
DWIDTH 4 0
BBX 4 16 0 -1
BITMAP
2333
3676
3676
3676
3676
3676
3676
3676
3676
3676
3676
3676
3676
3676
3676
3676
ENDCHAR
STARTCHAR braceleft.case
ENCODING -1
SWIDTH 504 0
DWIDTH 8 0
BBX 8 16 0 -1
BITMAP
00355482
00466682
00466682
00466500
00466500
00466500
00466500
28566500
28566500
28566500
00466500
00466500
00466500
00466682
00466682
00355482
ENDCHAR
STARTCHAR braceright.case
ENCODING -1
SWIDTH 506 0
DWIDTH 8 0
BBX 8 16 0 -2
BITMAP
18455400
18566500
18566500
00466500
00466500
00466500
00466682
00466682
00466682
00466500
00466500
00466500
00466500
18566500
18566500
18455400
ENDCHAR
STARTCHAR bracketleft.case
ENCODING -1
SWIDTH 453 0
DWIDTH 7 0
BBX 7 16 0 -1
BITMAP
25558830
36768830
36768830
36760000
36760000
36760000
36760000
36760000
36760000
36760000
36760000
36760000
36760000
36768830
36768830
25558830
ENDCHAR
STARTCHAR bracketright.case
ENCODING -1
SWIDTH 453 0
DWIDTH 7 0
BBX 7 16 0 -2
BITMAP
28845550
28847670
28847670
00027670
00027670
00027670
00027670
00027670
00027670
00027670
00027670
00027670
00027670
28847670
28847670
28845550
ENDCHAR
STARTCHAR brokenbar.case
ENCODING -1
SWIDTH 262 0
DWIDTH 4 0
BBX 4 16 0 0
BITMAP
2333
3676
3676
3676
3676
3676
3676
2333
0000
3676
3676
3676
3676
3676
3676
3676
ENDCHAR
STARTCHAR bullet.case
ENCODING -1
SWIDTH 503 0
DWIDTH 8 0
BBX 8 7 0 3
BITMAP
00588500
07688670
17800871
37500573
17800871
07688670
00588500
ENDCHAR
STARTCHAR uni0327.case
ENCODING -1
SWIDTH 0 0
DWIDTH 0 0
BBX 4 4 1 -4
BITMAP
0700
7981
2035
7871
ENDCHAR
STARTCHAR cent.case
ENCODING -1
SWIDTH 577 0
DWIDTH 9 0
BBX 9 16 0 -1
BITMAP
0000330000
0000770000
0000770000
0005888400
0086888640
0767887500
0788102000
2777000000
2777000000
0788102000
0767887500
0086887640
0005888400
0000330000
0000770000
0000770000
ENDCHAR
STARTCHAR uni0302.case
ENCODING -1
SWIDTH 0 0
DWIDTH 0 0
BBX 7 4 1 15
BITMAP
00440000
07576000
37945700
97208630
ENDCHAR
STARTCHAR colon.case
ENCODING -1
SWIDTH 262 0
DWIDTH 4 0
BBX 4 9 0 0
BITMAP
3676
3676
2555
0000
0000
0000
2555
3676
3676
ENDCHAR
STARTCHAR comma.case
ENCODING -1
SWIDTH 338 0
DWIDTH 5 0
BBX 5 5 0 -2
BITMAP
013330
056660
077620
087800
177700
ENDCHAR
STARTCHAR copyright.case
ENCODING -1
SWIDTH 895 0
DWIDTH 14 0
BBX 14 14 0 0
BITMAP
00006888882000
00294788848500
01967100058640
08650388712881
17804788660566
56408810410088
77117700000088
77117700000087
56408810410088
17803788660556
08550277712881
01867100058540
00283788847500
00006777772000
ENDCHAR
STARTCHAR currency.case
ENCODING -1
SWIDTH 676 0
DWIDTH 11 0
BBX 11 10 0 1
BITMAP
017100026000
156700087400
196288736800
013978793000
005640762000
005640762000
032978693200
387288727810
165700085500
007000006000
ENDCHAR
STARTCHAR degree.case
ENCODING -1
SWIDTH 413 0
DWIDTH 7 0
BBX 7 6 0 8
BITMAP
05888200
37785900
76308710
67308710
19787800
02887000
ENDCHAR
STARTCHAR uni0308.case
ENCODING -1
SWIDTH 0 0
DWIDTH 0 0
BBX 9 4 0 15
BITMAP
0683038600
2608080520
2608080620
0683038600
ENDCHAR
STARTCHAR divide.case
ENCODING -1
SWIDTH 618 0
DWIDTH 10 0
BBX 10 9 0 2
BITMAP
0000681000
0000681000
0000000000
2888888881
2888888881
2888888881
0000580000
0000844000
0000580000
ENDCHAR
STARTCHAR uni2215.case
ENCODING -1
SWIDTH 483 0
DWIDTH 8 0
BBX 8 14 0 0
BITMAP
00008771
00007880
00046670
00077620
00078800
00367700
00776300
00887000
02677000
07664000
08870000
17780000
66660000
87710000
ENDCHAR
STARTCHAR dollar.case
ENCODING -1
SWIDTH 660 0
DWIDTH 11 0
BBX 11 16 0 -1
BITMAP
000044000000
000177100000
018777394000
096777387400
467777457800
676477053000
467774000000
085866860000
006757858100
000058766800
000075197710
355577198710
368477366800
066677358200
004777371000
000077000000
ENDCHAR
STARTCHAR eight.case
ENCODING -1
SWIDTH 561 0
DWIDTH 9 0
BBX 9 14 0 0
BITMAP
0068886000
0848884700
3696769720
7664056660
7763036660
4679746640
0868688500
0477686800
4653577730
7762036760
7664056660
3697879620
0848884700
0067776000
ENDCHAR
STARTCHAR ellipsis.case
ENCODING -1
SWIDTH 766 0
DWIDTH 12 0
BBX 12 3 0 0
BITMAP
255525552555
367636762677
367636762677
ENDCHAR
STARTCHAR emdash.case
ENCODING -1
SWIDTH 790 0
DWIDTH 13 0
BBX 12 3 0 5
BITMAP
288888888886
288888888886
288888888886
ENDCHAR
STARTCHAR endash.case
ENCODING -1
SWIDTH 721 0
DWIDTH 12 0
BBX 11 3 0 5
BITMAP
288888888860
288888888860
288888888860
ENDCHAR
STARTCHAR equal.case
ENCODING -1
SWIDTH 618 0
DWIDTH 10 0
BBX 10 8 0 3
BITMAP
2888888881
2888888881
2888888881
0000000000
0000000000
2888888881
2888888881
2888888881
ENDCHAR
STARTCHAR Euro.case
ENCODING -1
SWIDTH 767 0
DWIDTH 12 0
BBX 12 14 0 0
BITMAP
000038888820
000665888574
005697888682
008866000610
024560000000
788888880000
000000000000
788888880000
677777770000
024560000000
008866000610
005587888672
000655888474
000037777720
ENDCHAR
STARTCHAR exclam.case
ENCODING -1
SWIDTH 262 0
DWIDTH 4 0
BBX 4 14 0 0
BITMAP
3676
3676
3676
3676
3676
3676
3676
3676
3676
3676
1222
2555
3676
3676
ENDCHAR
STARTCHAR exclamdown.case
ENCODING -1
SWIDTH 262 0
DWIDTH 4 0
BBX 4 14 0 -4
BITMAP
3676
3676
2555
1222
3676
3676
3676
3676
3676
3676
3676
3676
3676
3676
ENDCHAR
STARTCHAR five.case
ENCODING -1
SWIDTH 558 0
DWIDTH 9 0
BBX 9 14 0 0
BITMAP
1777777710
1888888810
1888888810
0000000000
2677000000
2677772000
2677006400
2677894810
2677768450
0000046660
7663057750
4597879710
0848884700
0077776000
ENDCHAR
STARTCHAR four.case
ENCODING -1
SWIDTH 585 0
DWIDTH 9 0
BBX 9 14 0 0
BITMAP
0000887000
0005567000
0008872000
0036780000
0087630000
0178800000
0766500000
0888367600
2233367600
4888467670
4888467670
4888467670
0000367600
0000367600
ENDCHAR
STARTCHAR uni2074.case
ENCODING -1
SWIDTH 312 0
DWIDTH 5 0
BBX 5 6 0 8
BITMAP
036700
087200
278000
484770
000770
484770
ENDCHAR
STARTCHAR fraction.case
ENCODING -1
SWIDTH 655 0
DWIDTH 10 0
BBX 10 14 0 0
BITMAP
0000000556
0000000880
0000005560
0000008800
0000055600
0000088000
0000655000
0000880000
0006550000
0008800000
0065500000
0088000000
0655000000
1880000000
ENDCHAR
STARTCHAR gravecomb.case
ENCODING -1
SWIDTH 0 0
DWIDTH 0 0
BBX 5 4 0 15
BITMAP
144000
086200
027800
007640
ENDCHAR
STARTCHAR greater.case
ENCODING -1
SWIDTH 677 0
DWIDTH 11 0
BBX 10 11 0 1
BITMAP
3710000000
3676000000
3585840000
0676868200
0017777771
0000486867
0028655720
1777776000
2686820000
3684000000
3600000000
ENDCHAR
STARTCHAR guillemotleft.case
ENCODING -1
SWIDTH 666 0
DWIDTH 11 0
BBX 10 9 0 2
BITMAP
0000400004
0028300184
0477402867
2655507457
2684006850
1768406876
1858307684
0076400575
0003500017
ENDCHAR
STARTCHAR guillemotright.case
ENCODING -1
SWIDTH 666 0
DWIDTH 11 0
BBX 10 9 0 2
BITMAP
1300004000
1760005810
1858007681
2763508637
0267401585
1868307685
1677405867
1582005840
2700007100
ENDCHAR
STARTCHAR guilsinglleft.case
ENCODING -1
SWIDTH 338 0
DWIDTH 5 0
BBX 5 9 0 2
BITMAP
000040
002830
047740
265550
268400
176840
185830
007640
000350
ENDCHAR
STARTCHAR guilsinglright.case
ENCODING -1
SWIDTH 338 0
DWIDTH 5 0
BBX 5 9 0 2
BITMAP
130000
176000
185800
276350
026740
186830
167740
158200
270000
ENDCHAR
STARTCHAR hyphen.case
ENCODING -1
SWIDTH 445 0
DWIDTH 7 0
BBX 7 3 0 5
BITMAP
28888820
28888820
28888820
ENDCHAR
STARTCHAR less.case
ENCODING -1
SWIDTH 677 0
DWIDTH 11 0
BBX 11 11 0 1
BITMAP
000000001720
000000068620
000003858510
000076767600
013836681000
177768300000
018676760000
000385858400
000005768620
000000177720
000000002810
ENDCHAR
STARTCHAR logicalnot.case
ENCODING -1
SWIDTH 618 0
DWIDTH 10 0
BBX 10 6 0 2
BITMAP
2888888881
2888888881
2888888881
0000005551
0000007761
0000007761
ENDCHAR
STARTCHAR uni00B5.case
ENCODING -1
SWIDTH 792 0
DWIDTH 13 0
BBX 13 18 0 -4
BITMAP
36760002667000
36760002667000
36760002667000
36760002667000
36760002667000
36760002667000
36760002667000
36760002667000
36760002667000
36760004665000
36762009865100
36767887684720
36767884755820
36768777207720
36760000000000
36760000000000
36760000000000
13330000000000
ENDCHAR
STARTCHAR minus.case
ENCODING -1
SWIDTH 618 0
DWIDTH 10 0
BBX 10 3 0 5
BITMAP
2888888881
2888888881
2888888881
ENDCHAR
STARTCHAR multiply.case
ENCODING -1
SWIDTH 580 0
DWIDTH 9 0
BBX 8 8 1 2
BITMAP
07201840
49A28665
65586681
03866810
18668420
866829A2
26816571
03100500
ENDCHAR
STARTCHAR nine.case
ENCODING -1
SWIDTH 558 0
DWIDTH 9 0
BBX 9 14 0 -1
BITMAP
0067776000
0748884700
2697879620
6673056650
7663026670
6476746670
1758856670
0560026670
0038856670
0000026670
7663056650
4687769620
0848884700
0078886000
ENDCHAR
STARTCHAR numbersign.case
ENCODING -1
SWIDTH 776 0
DWIDTH 12 0
BBX 12 14 0 0
BITMAP
000777007770
000777017770
000777002220
044777688885
044677788885
045666888885
005663033300
003331077700
288888477750
288888467770
288888566670
015550666300
036660777100
056630777000
ENDCHAR
STARTCHAR one.case
ENCODING -1
SWIDTH 378 0
DWIDTH 6 0
BBX 6 14 0 0
BITMAP
686664
686664
686664
005664
005664
005664
005664
005664
005664
005664
005664
005664
005664
005664
ENDCHAR
STARTCHAR onehalf.case
ENCODING -1
SWIDTH 735 0
DWIDTH 12 0
BBX 11 14 0 0
BITMAP
287710008720
287710036700
007710087100
007710367000
007710871000
007713670000
000008710000
000046738850
000087175780
000467013780
000871027620
004660068870
008810068870
055600000000
ENDCHAR
STARTCHAR onequarter.case
ENCODING -1
SWIDTH 722 0
DWIDTH 12 0
BBX 11 14 0 0
BITMAP
287710008720
287710036700
007710087100
007710367000
007710871000
007713670000
000008710000
000046708800
000087166500
000467088000
000871286770
004660000770
008810285770
055600000000
ENDCHAR
STARTCHAR uni00B9.case
ENCODING -1
SWIDTH 306 0
DWIDTH 5 0
BBX 5 6 0 8
BITMAP
287710
287710
007710
007710
007710
007710
ENDCHAR
STARTCHAR ordfeminine.case
ENCODING -1
SWIDTH 456 0
DWIDTH 7 0
BBX 7 6 0 8
BITMAP
00569000
00888000
017C6400
05678700
0888C710
17B8A650
ENDCHAR
STARTCHAR ordmasculine.case
ENCODING -1
SWIDTH 489 0
DWIDTH 8 0
BBX 7 7 0 7
BITMAP
01888700
08477470
16700780
36400670
17700780
07677750
00588400
ENDCHAR
STARTCHAR paragraph.case
ENCODING -1
SWIDTH 893 0
DWIDTH 14 0
BBX 14 14 0 0
BITMAP
00788888888884
08588888888884
46877888888884
77620003443144
77620004664177
73888885664177
26388885664177
06400004664177
00488885664177
00000004664177
00000004664177
00000004664177
00000004664177
00000004664177
ENDCHAR
STARTCHAR parenleft.case
ENCODING -1
SWIDTH 290 0
DWIDTH 5 0
BBX 5 16 0 -1
BITMAP
004440
017880
077720
088800
177700
467500
666300
766200
776100
766200
566400
277700
077700
087710
047760
008880
ENDCHAR
STARTCHAR parenright.case
ENCODING -1
SWIDTH 290 0
DWIDTH 5 0
BBX 6 16 -1 -2
BITMAP
378700
088800
067740
017770
007770
007770
007761
007662
007762
007771
007770
007870
037760
077720
188800
244300
ENDCHAR
STARTCHAR percent.case
ENCODING -1
SWIDTH 827 0
DWIDTH 13 0
BBX 13 14 0 0
BITMAP
05888200075670
37785900278810
76308710875600
67308714679000
19787808864000
02887065680000
00000178720000
00008864000000
00066680588400
00188726788840
00765708801780
02788107801770
08755007488560
56790000777700
ENDCHAR
STARTCHAR period.case
ENCODING -1
SWIDTH 262 0
DWIDTH 4 0
BBX 4 3 0 0
BITMAP
2555
3676
3676
ENDCHAR
STARTCHAR periodcentered.case
ENCODING -1
SWIDTH 262 0
DWIDTH 4 0
BBX 4 3 0 5
BITMAP
2555
3676
3676
ENDCHAR
STARTCHAR plus.case
ENCODING -1
SWIDTH 616 0
DWIDTH 10 0
BBX 9 9 0 2
BITMAP
0006663000
0006663000
0006663000
2886665880
2886665880
2886665880
0006663000
0006663000
0003332000
ENDCHAR
STARTCHAR plusminus.case
ENCODING -1
SWIDTH 618 0
DWIDTH 10 0
BBX 10 12 0 0
BITMAP
0006663000
0006663000
0006663000
2886665880
2886665880
2886665880
0006663000
0006663000
0003332000
2888888881
2888888881
2888888881
ENDCHAR
STARTCHAR question.case
ENCODING -1
SWIDTH 598 0
DWIDTH 10 0
BBX 9 14 0 0
BITMAP
0048888100
0467884900
0886888560
2678017870
1222008870
0000074770
0000848720
0004697400
0007665000
0007771000
0002220000
0006651000
0007771000
0007771000
ENDCHAR
STARTCHAR questiondown.case
ENCODING -1
SWIDTH 598 0
DWIDTH 10 0
BBX 9 14 0 -4
BITMAP
0007761000
0007761000
0006551000
0002220000
0007662000
0008871000
0086780000
0757730000
1786300000
3767002220
2678017870
0886888560
0467884900
0048888100
ENDCHAR
STARTCHAR quotedbl.case
ENCODING -1
SWIDTH 464 0
DWIDTH 7 0
BBX 7 5 0 9
BITMAP
77707770
77707770
77707770
77707770
33303330
ENDCHAR
STARTCHAR quotedblbase.case
ENCODING -1
SWIDTH 464 0
DWIDTH 7 0
BBX 7 5 0 -1
BITMAP
77707770
77707770
57705770
07700770
03300330
ENDCHAR
STARTCHAR quotedblleft.case
ENCODING -1
SWIDTH 464 0
DWIDTH 7 0
BBX 7 5 0 8
BITMAP
33003300
77007700
77507750
77707770
77707770
ENDCHAR
STARTCHAR quotedblright.case
ENCODING -1
SWIDTH 464 0
DWIDTH 7 0
BBX 7 5 0 9
BITMAP
77707770
77707770
57705770
07700770
03300330
ENDCHAR
STARTCHAR quoteleft.case
ENCODING -1
SWIDTH 212 0
DWIDTH 3 0
BBX 3 5 0 8
BITMAP
3300
7700
7750
7770
7770
ENDCHAR
STARTCHAR quoteright.case
ENCODING -1
SWIDTH 212 0
DWIDTH 3 0
BBX 3 5 0 9
BITMAP
7770
7770
5770
0770
0330
ENDCHAR
STARTCHAR quotesinglbase.case
ENCODING -1
SWIDTH 212 0
DWIDTH 3 0
BBX 3 5 0 -1
BITMAP
7770
7770
5770
0770
0330
ENDCHAR
STARTCHAR quotesingle.case
ENCODING -1
SWIDTH 212 0
DWIDTH 3 0
BBX 3 5 0 9
BITMAP
7770
7770
7770
7770
3330
ENDCHAR
STARTCHAR registered.case
ENCODING -1
SWIDTH 895 0
DWIDTH 14 0
BBX 14 14 0 0
BITMAP
00006888882000
00294788848500
01967100058640
08654587732881
17805687780566
56405630761088
77105698880088
7710568BA20087
56405635650088
17805630880556
08551110112881
01867100058540
00283788847500
00006777772000
ENDCHAR
STARTCHAR uni030A.case
ENCODING -1
SWIDTH 0 0
DWIDTH 0 0
BBX 5 4 0 14
BITMAP
068500
270710
270710
068500
ENDCHAR
STARTCHAR section.case
ENCODING -1
SWIDTH 645 0
DWIDTH 10 0
BBX 10 17 0 -2
BITMAP
0006888600
0199878992
0774888477
0777101410
0757786100
0194887830
0047755881
0864539664
0788104666
0788236862
0857677450
0293776660
0017863862
0000028565
3578778963
0877777780
0047778400
ENDCHAR
STARTCHAR semicolon.case
ENCODING -1
SWIDTH 338 0
DWIDTH 5 0
BBX 5 11 0 -2
BITMAP
006660
007770
007770
000000
000000
000000
013330
056660
077620
087800
177700
ENDCHAR
STARTCHAR seven.case
ENCODING -1
SWIDTH 505 0
DWIDTH 8 0
BBX 8 14 0 0
BITMAP
48888883
48888883
48888883
00004442
00008770
00007780
00036670
00076630
00087700
00077800
00366700
00776300
00877000
00778000
ENDCHAR
STARTCHAR six.case
ENCODING -1
SWIDTH 558 0
DWIDTH 9 0
BBX 9 14 0 0
BITMAP
0068886000
0848884800
3697779620
7664046660
7761000000
7764883000
7761006500
7764894810
7764768450
7761046660
7664057750
3697879710
0838884600
0067776000
ENDCHAR
STARTCHAR slash.case
ENCODING -1
SWIDTH 504 0
DWIDTH 8 0
BBX 8 16 0 -1
BITMAP
00000444
00003678
00007664
00008870
00026780
00076640
00088700
00267800
00666500
00887100
01778000
06665000
08871000
17880000
56660000
87710000
ENDCHAR
STARTCHAR uni00AD.case
ENCODING -1
SWIDTH 445 0
DWIDTH 7 0
BBX 7 3 0 5
BITMAP
28888820
28888820
28888820
ENDCHAR
STARTCHAR sterling.case
ENCODING -1
SWIDTH 618 0
DWIDTH 10 0
BBX 10 14 0 0
BITMAP
0048878400
0566886560
1897886972
3677006653
4666001100
0444000000
5888888100
5888888100
5888888100
0877300000
1122000000
6888888883
6888888883
6888888883
ENDCHAR
STARTCHAR three.case
ENCODING -1
SWIDTH 558 0
DWIDTH 9 0
BBX 9 14 0 0
BITMAP
0078886000
0848884800
4697779630
7663046660
0000036660
0000484620
0000006500
0000494810
0000468450
0000046660
7663057750
3597879710
0848884600
0067776000
ENDCHAR
STARTCHAR threequarters.case
ENCODING -1
SWIDTH 722 0
DWIDTH 12 0
BBX 11 14 0 0
BITMAP
078810008720
268470036700
003820087100
003750367000
258370871000
080443670000
038608710000
000046708800
000087166500
000467088000
000871286770
004660000770
008810285770
055600000000
ENDCHAR
STARTCHAR uni00B3.case
ENCODING -1
SWIDTH 332 0
DWIDTH 5 0
BBX 5 7 0 7
BITMAP
078810
268470
003820
003750
258370
080440
038600
ENDCHAR
STARTCHAR tildecomb.case
ENCODING -1
SWIDTH 0 0
DWIDTH 0 0
BBX 7 3 0 15
BITMAP
05840050
18063080
23007820
ENDCHAR
STARTCHAR trademark.case
ENCODING -1
SWIDTH 850 0
DWIDTH 14 0
BBX 13 7 0 6
BITMAP
7888837A201B70
78AA8377908870
0077007A5B5C70
0077007786A870
00770077181770
00770077000770
00770077000770
ENDCHAR
STARTCHAR two.case
ENCODING -1
SWIDTH 558 0
DWIDTH 9 0
BBX 9 14 0 0
BITMAP
0068886000
0848874700
3697779720
6664056650
2220036660
0000086640
0000758900
0005697400
0037966000
0288580000
0634600000
1888888810
1888888810
1888888810
ENDCHAR
STARTCHAR uni00B2.case
ENCODING -1
SWIDTH 339 0
DWIDTH 5 0
BBX 5 6 0 8
BITMAP
068820
177470
016660
055700
288840
288840
ENDCHAR
STARTCHAR underscore.case
ENCODING -1
SWIDTH 667 0
DWIDTH 11 0
BBX 10 3 0 0
BITMAP
2888888887
2888888887
2888888887
ENDCHAR
STARTCHAR yen.case
ENCODING -1
SWIDTH 769 0
DWIDTH 12 0
BBX 12 14 0 0
BITMAP
766700004688
188720008754
065680065780
008864188630
005579556800
000975677100
000368826000
000086560000
000013330000
004846777700
004846777700
004846777700
000026770000
000026770000
ENDCHAR
STARTCHAR zero.case
ENCODING -1
SWIDTH 558 0
DWIDTH 9 0
BBX 9 14 0 0
BITMAP
0068886000
0848884700
3697769720
7664056660
7761027670
7761027670
7761027670
7761027670
7761027670
7761027670
7664056660
3697879620
0838884700
0067776000
ENDCHAR
ENDFONT
